<svg xmlns="http://www.w3.org/2000/svg" width="14.681" height="20.053" viewBox="0 0 14.681 20.053">
  <g id="Сгруппировать_88" data-name="Сгруппировать 88" transform="translate(-5394.08 -250.8)">
    <path id="Контур_29" data-name="Контур 29" d="M5403.77,250.8a.785.785,0,0,1,.455.825c-.019.468-.01.939,0,1.408a.283.283,0,0,0,.114.208,1.907,1.907,0,0,1,.814.82.257.257,0,0,0,.193.1c.411.01.822.005,1.233.005a2.075,2.075,0,0,1,2.179,2.172c.006,1.3,0,2.6,0,3.894q0,4.2,0,8.4a2.158,2.158,0,0,1-.51,1.5,2.026,2.026,0,0,1-1.585.715c-3.471,0-6.943-.016-10.414.009a2.124,2.124,0,0,1-2.172-2.167c.012-.854,0-1.709,0-2.563q0-4.863,0-9.727a2.18,2.18,0,0,1,.466-1.456,2.023,2.023,0,0,1,1.562-.768c.462-.013.926-.006,1.389,0a.192.192,0,0,0,.208-.124,1.585,1.585,0,0,1,.769-.776.234.234,0,0,0,.149-.257c0-.463.012-.927-.006-1.39a.774.774,0,0,1,.454-.823h.353a.763.763,0,0,1,.47.813c-.018.475,0,.952-.007,1.427a.208.208,0,0,0,.137.223,1.758,1.758,0,0,1,.79.784.26.26,0,0,0,.187.116c.273.013.547,0,.821.008a.207.207,0,0,0,.223-.138,1.612,1.612,0,0,1,.774-.769.208.208,0,0,0,.135-.225c0-.475.012-.952-.006-1.427a.755.755,0,0,1,.47-.812Zm-8.422,11.7v6.223a.814.814,0,0,0,.867.87q5.207,0,10.412,0a.814.814,0,0,0,.866-.871q0-6.213,0-12.426a.811.811,0,0,0-.851-.866q-.645-.012-1.292,0a.259.259,0,0,0-.188.114,1.688,1.688,0,0,1-1.581,1,1.663,1.663,0,0,1-1.56-.994.192.192,0,0,0-.21-.123c-.26.006-.522.009-.782,0a.208.208,0,0,0-.219.142,1.727,1.727,0,0,1-3.114-.008.209.209,0,0,0-.226-.133c-.4,0-.8.011-1.193,0a.868.868,0,0,0-.936.93C5395.358,258.4,5395.348,260.449,5395.348,262.5Zm8.7-7.684a.469.469,0,0,0-.459-.481.483.483,0,0,0-.479.469.47.47,0,0,0,.466.474A.452.452,0,0,0,5404.052,254.813Zm-4.792.462a.467.467,0,0,0,.466-.475.474.474,0,0,0-.468-.457.46.46,0,0,0-.469.469A.452.452,0,0,0,5399.26,255.275Z" fill="#839f60"/>
    <path id="Контур_30" data-name="Контур 30" d="M5404.331,258.349a.62.62,0,0,1,.606.341.6.6,0,0,1-.048.647,1.271,1.271,0,0,1-.156.174q-2.89,2.892-5.781,5.784a.69.69,0,0,1-.7.245.629.629,0,0,1-.328-1,1.128,1.128,0,0,1,.094-.1q2.933-2.932,5.865-5.866A.613.613,0,0,1,5404.331,258.349Z" fill="#839f60"/>
    <path id="Контур_31" data-name="Контур 31" d="M5401.412,268.69q-1.75,0-3.5,0a.625.625,0,0,1-.2-1.22.832.832,0,0,1,.249-.032q3.462,0,6.924,0a.63.63,0,1,1-.007,1.254Z" fill="#839f60"/>
    <path id="Контур_32" data-name="Контур 32" d="M5403.336,265.558a1.713,1.713,0,1,1,1.72-1.713A1.718,1.718,0,0,1,5403.336,265.558Zm-.006-2.156a.438.438,0,0,0-.438.448.445.445,0,1,0,.89-.016A.433.433,0,0,0,5403.33,263.4Z" fill="#839f60"/>
    <path id="Контур_33" data-name="Контур 33" d="M5399.5,261.722a1.711,1.711,0,1,1,1.718-1.713A1.719,1.719,0,0,1,5399.5,261.722Zm-.443-1.7a.445.445,0,1,0,.889-.012.445.445,0,1,0-.889.012Z" fill="#839f60"/>
  </g>
</svg>
