<svg xmlns="http://www.w3.org/2000/svg" width="17.505" height="20.672" viewBox="0 0 17.505 20.672">
  <path id="Контур_22" data-name="Контур 22" d="M6609.371,170.778q-.017-.213-.032-.426l-.082-1.2q-.082-1.2-.167-2.409-.064-.9-.132-1.794t-.133-1.794q-.038-.54-.073-1.082c-.051-.784-.1-1.6-.181-2.392a2.115,2.115,0,0,0-.351-.924,1.7,1.7,0,0,0-1.479-.759h-1.193a4.866,4.866,0,0,0-5.09-4.991,4.975,4.975,0,0,0-3.475,1.648,4.578,4.578,0,0,0-1.15,3.343h-.3c-.309,0-.614,0-.918,0a1.87,1.87,0,0,0-1.843,1.762c-.057.96-.127,1.936-.2,2.88l-.046.638q-.076,1.061-.156,2.12t-.156,2.12c-.093,1.274-.186,2.548-.272,3.838a3.257,3.257,0,0,0,.013.8,1.84,1.84,0,0,0,1.864,1.514l6.863,0h6.911a1.827,1.827,0,0,0,1.835-1.889C6609.424,171.444,6609.4,171.1,6609.371,170.778Zm-11.823-12.8a3.036,3.036,0,0,1,1.391-2.738,2.979,2.979,0,0,1,3.294-.114,3.054,3.054,0,0,1,1.583,2.852Zm-3.6,9.418q.09-1.226.177-2.453.1-1.446.2-2.89l.148-2.145c.014-.212.109-.215.155-.216.186-.005.372-.006.56-.006h.691v.364c0,.331,0,.654,0,.978-.006.538-.016,1.076-.025,1.614l-.011.606a.941.941,0,0,0,.249.681.815.815,0,0,0,.581.245h.014a.848.848,0,0,0,.6-.236.93.93,0,0,0,.261-.671c0-.808,0-1.615,0-2.423v-1.142h6.265v1.121c0,.818,0,1.636,0,2.455a.872.872,0,0,0,.654.88.831.831,0,0,0,.946-.429,1.374,1.374,0,0,0,.108-.56c.006-.819.006-1.637,0-2.456V159.7h.294c.324,0,.632,0,.942.007.035,0,.115,0,.129.216l.192,2.727q.08,1.124.161,2.248l.2,2.765c.038.535.074,1.07.113,1.6l.023.332c.047.667.093,1.334.149,2,.011.136.016.269-.023.311s-.175.049-.3.049h-13.445a.535.535,0,0,1-.295-.048.579.579,0,0,1-.023-.319c.058-.731.11-1.462.163-2.194Z" transform="translate(-6591.926 -152.997)" fill="#839f60"/>
</svg>
