<svg xmlns="http://www.w3.org/2000/svg" width="20.743" height="17.922" viewBox="0 0 20.743 17.922">
  <g id="Сгруппировать_369" data-name="Сгруппировать 369" transform="translate(-5415.408 -5499.18)">
    <path id="Контур_220" data-name="Контур 220" d="M5436.151,5499.815l-3.281,16.541a1.215,1.215,0,0,1-1.721.6l-7.57-5.8-2.753-1.331-4.634-1.56s-.711-.252-.78-.8.8-.848.8-.848l18.421-7.227S5436.151,5498.714,5436.151,5499.815Z" fill="#fff"/>
    <path id="Контур_221" data-name="Контур 221" d="M5423,5516.17s-.221-.021-.5-.893-1.675-5.46-1.675-5.46l11.126-7.066s.643-.39.62,0c0,0,.114.069-.23.39s-8.74,7.869-8.74,7.869" fill="#839f60"/>
    <path id="Контур_222" data-name="Контур 222" d="M5426.482,5513.373l-3,2.731a.526.526,0,0,1-.49.066l.573-5.071" fill="#144246"/>
  </g>
</svg>
