<svg xmlns="http://www.w3.org/2000/svg" width="18.31" height="18.31" viewBox="0 0 18.31 18.31">
  <g id="Сгруппировать_370" data-name="Сгруппировать 370" transform="translate(-5376.629 -5498.986)">
    <path id="Контур_223" data-name="Контур 223" d="M5385.947,5498.986a8.97,8.97,0,0,0-8.994,8.925,8.859,8.859,0,0,0,1.233,4.514l-1.544,4.557a.237.237,0,0,0,.225.314.261.261,0,0,0,.072-.011l4.751-1.51a8.946,8.946,0,1,0,4.257-16.789Z" fill="#fff"/>
    <path id="Контур_224" data-name="Контур 224" d="M5390.177,5509.507c-.035-.017-1.37-.675-1.607-.76a.914.914,0,0,0-.311-.069.529.529,0,0,0-.45.267c-.133.2-.537.67-.662.811-.016.018-.038.04-.051.04s-.219-.085-.281-.112a7.025,7.025,0,0,1-2.668-2.37.163.163,0,0,1-.023-.053.46.46,0,0,1,.079-.092c.072-.072.151-.167.227-.258.036-.044.073-.087.108-.128a1.424,1.424,0,0,0,.217-.345l.03-.06a.626.626,0,0,0-.018-.586c-.032-.063-.6-1.423-.655-1.566-.145-.345-.335-.5-.6-.5l-.1,0a3.2,3.2,0,0,0-1.11.285,2.327,2.327,0,0,0-.861,1.977,4.263,4.263,0,0,0,.923,2.345c.007.01.02.028.038.055a8.7,8.7,0,0,0,3.73,3.238,6.054,6.054,0,0,0,2.253.576h0c.146,0,.263-.011.367-.021l.065-.007a2.363,2.363,0,0,0,1.651-1.168,1.842,1.842,0,0,0,.1-1.216A.837.837,0,0,0,5390.177,5509.507Z" fill="#839f60"/>
  </g>
</svg>
