<svg xmlns="http://www.w3.org/2000/svg" width="32" height="32" viewBox="0 0 32 32">
  <g id="Сгруппировать_70" data-name="Сгруппировать 70" transform="translate(-6389.921 -149.308)">
    <circle id="Эллипс_3" data-name="Эллипс 3" cx="16" cy="16" r="16" transform="translate(6389.921 149.308)" fill="#839f60"/>
    <path id="Контур_21" data-name="Контур 21" d="M6415.067,160.922a5.8,5.8,0,0,0-4.875-3.453,5.781,5.781,0,0,0-2.559.371,5.515,5.515,0,0,0-1.7,1.02,5.834,5.834,0,0,0-7.341-.223,5.836,5.836,0,0,0-2.279,4.146,5.354,5.354,0,0,0,.188,2,5.81,5.81,0,0,0,1.5,2.613l4.295,4.3q1.644,1.644,3.282,3.3a.509.509,0,0,0,.35.177h.007a.484.484,0,0,0,.338-.178c.183-.2.377-.393.571-.585l2.111-2.113q2.4-2.4,4.8-4.789a5.777,5.777,0,0,0,1.8-3.925v-.005A6.238,6.238,0,0,0,6415.067,160.922Zm-1.2,2.295v.012a3.983,3.983,0,0,1-1.216,2.995q-1.686,1.69-3.374,3.376l-3.346,3.345-2.4-2.4q-2.2-2.191-4.382-4.4a3.89,3.89,0,0,1-1.155-2.958,4.057,4.057,0,0,1,2.012-3.476,3.84,3.84,0,0,1,1.458-.525,4.231,4.231,0,0,1,.678-.056,4.1,4.1,0,0,1,.94.11,4.035,4.035,0,0,1,1.945,1.067l.14.136c.151.146.3.291.44.448a.447.447,0,0,0,.305.167.48.48,0,0,0,.341-.157l.276-.263a10.241,10.241,0,0,1,.858-.769,3.573,3.573,0,0,1,1.684-.679,4.016,4.016,0,0,1,3.681,1.243A3.912,3.912,0,0,1,6413.864,163.217Z" fill="#fff"/>
  </g>
</svg>
