<svg xmlns="http://www.w3.org/2000/svg" width="192.659" height="71.562" viewBox="0 0 192.659 71.562">
  <g id="Сгруппировать_177" data-name="Сгруппировать 177" transform="translate(-5310.489 -32.312)">
    <text id="цветочная_мастерская" data-name="цветочная мастерская" transform="translate(5389.927 100.874)" fill="#839f60" font-size="9.882" font-family="SegoeUI, Segoe UI"><tspan x="0" y="0">цветочная мастерская</tspan></text>
    <g id="Сгруппировать_174" data-name="Сгруппировать 174">
      <g id="Сгруппировать_164" data-name="Сгруппировать 164">
        <path id="Контур_58" data-name="Контур 58" d="M5332.989,71.152c-.056.077-.111.147-.164.213a11.149,11.149,0,0,0,1.9,1.075c-.818.211-.789-.137-1.587.128l0,.1a6.312,6.312,0,0,1,3.213.375l.024.044a.3.3,0,0,0-.033.117l.038.016c.859-.91,2.012-1.887,2.931-2.81-2.031.571-1.22,1.792-2.946.567,1.99.867.513-.388,2.912-1.461,4.148-1.856.306,3.279-.151,4.23-1.836,3.819-3.454,1.729-4.246,2.787-1.02,1.362-4.915.5-5.048-1.047a9.674,9.674,0,0,1-3.692.026c-3.11-1.15.558-2.823.8-3.132,2.445-3.134,3.212-2.07,4.01-1.267a4.293,4.293,0,0,1,.986.13,2.674,2.674,0,0,0-.724-.175,2.752,2.752,0,0,1,1.552.265c.071-.053.145-.114.222-.183Zm-2.716.087c-.431-.225-.866-.165-1.411.923.246-.158.517-.349.817-.582a2.239,2.239,0,0,1,.594-.341Zm.14,4.163a1.772,1.772,0,0,0,.981.143,2.527,2.527,0,0,1-.867-.161Z" fill="#ffe300" fill-rule="evenodd"/>
      </g>
      <g id="Сгруппировать_165" data-name="Сгруппировать 165">
        <path id="Контур_59" data-name="Контур 59" d="M5340.079,73.649c3.441-9.053,13.8-3.625,15.512,1.784,2.127,6.714-1.566,16.153-8.318,19.974-5.953,3.368-10.365.085-13.154-5.066-2.408-4.449-.79-9.75,4.4-11.146.112-.212.054-.077.133-.418.173.307.313.45.126.757-2.733,4.47-.015,5.083,4.09,7.514,2.719-2.013,3.874-6.331,3.283-9.114C5345.379,74.317,5345.913,70.475,5340.079,73.649Z" fill="#dc1d55" fill-rule="evenodd"/>
      </g>
      <g id="Сгруппировать_166" data-name="Сгруппировать 166">
        <path id="Контур_60" data-name="Контур 60" d="M5346.9,51.4c1.685-6.876,1.69-9.115,8.966-11.423,8.514-2.7,13.9,5.767,8,9.707-2.759,1.842-4.714.816-6.862.2a4.343,4.343,0,0,1-1.326.653c-1.209.422-6.715.731-8.78.867Zm10.1-7.963a9.262,9.262,0,0,1,.748-.967A3.622,3.622,0,0,0,5357,43.437Z" fill="#dc1d55" fill-rule="evenodd"/>
      </g>
      <g id="Сгруппировать_167" data-name="Сгруппировать 167">
        <path id="Контур_61" data-name="Контур 61" d="M5364.971,47.183c4.336.659,2.617.6,5.123.6l-.18-.2a3.2,3.2,0,0,1,5.118,3.2c-.025.165-.371,1.614-.763,2.979,3.738,2.582,3.809,4.323.449,9.433-2.026,3.083-6.278,7.679-10.1,8.69-.362.1-7.435.57-7.977.476a19.385,19.385,0,0,1-4.422-1.958,20.223,20.223,0,0,0,4.214-1.656l-.167-.182L5358.347,66c3.608-4.408,4.365-2.87,7.2-6.654a5.949,5.949,0,0,1-1.835-3.172c-.4-2.971.909-4.836,3.032-6.434C5366.317,49.131,5365.749,48.308,5364.971,47.183Z" fill="#dc1d55" fill-rule="evenodd"/>
      </g>
      <g id="Сгруппировать_168" data-name="Сгруппировать 168">
        <path id="Контур_62" data-name="Контур 62" d="M5357.469,49.175c4.472.309,7.733.177,7.385,6.262-.357,6.246-11.015,14.549-17.964,13.926-3.964-.355-3.6-1.928-7.87.566a7.056,7.056,0,0,1,1.552-3.057c2.459-2.837,5.579-3.1,8.443-4.042,3.2-1.051,7.169-4.471,8.911-7.19C5360.953,50.915,5361.545,52.844,5357.469,49.175Z" fill="#e3628c" fill-rule="evenodd"/>
      </g>
      <g id="Сгруппировать_169" data-name="Сгруппировать 169">
        <path id="Контур_63" data-name="Контур 63" d="M5329.974,69.013c-8.309.781-20.166-11.039-19.454-18.213.48-4.831,4.682-12.4,10.369-13.446a11.976,11.976,0,0,1,2.988-.211c1.64-4.99,5.1-3.87,9.666-4.715,10.258-1.9,20.35,20.06,9.561,25.95l.356-.426c-1.393.314-7.811,11.972-9.928,14.544,1.954-6.937.5-16.194,5.33-20.682-.335-.174-.315.109-.815.062-.724-1.37.5-6.634-3.626-10.129a8.917,8.917,0,0,1-1.963.242c-1.79,4-4.583,4.066-9.362,4.422-2.466,3.438-3.732,5.693-2.615,9.889,1.3,4.891,3.892,11.073,9.493,12.713Zm5.483-27.508c.124-.027.258-.061.408-.1Z" fill="#dc1d55" fill-rule="evenodd"/>
      </g>
      <g id="Сгруппировать_170" data-name="Сгруппировать 170">
        <path id="Контур_64" data-name="Контур 64" d="M5328.918,70.547c-3.436-2.273-6.326,2.876-6.083,3.832l.083.3c-.079.1-.153.212-.223.326.381.115.8.234,1.25.358a3.118,3.118,0,0,0,.762.134,1.319,1.319,0,0,0-.465.155c4.29-.656,2.879-.778,6.44-.323,3.459.442,3.313.231,6.639-.416-3.817,5.86-2.875,3.313-6.8,7.132l-1.408,1.651c-2.5,1.873-6.683.952-9.861-.106-6.228,3.751-10.447-1.637-7.846-6.215,1.5-2.64,1.081-4.452,3.172-7.592C5317.07,66.033,5328.054,64.913,5328.918,70.547Z" fill="#fde67d" fill-rule="evenodd"/>
      </g>
      <g id="Сгруппировать_171" data-name="Сгруппировать 171">
        <path id="Контур_65" data-name="Контур 65" d="M5343,64.267c.692-7.242-1.709-5.489-1.769-8.771-.138-7.546,16.658-12.238,16.56-2.582-.042,4.084-4.131,9.307-8.761,6.56-.423-.251-1.618.183-2.469.708A19.576,19.576,0,0,1,5343,64.267Zm5-7.834a17.762,17.762,0,0,0,2.446-.846l0-.132c-.645-.456-.593-.689-.348-1.008a9.286,9.286,0,0,0-2,1.168Q5348.057,56.032,5347.991,56.433Z" fill="#fde67d" fill-rule="evenodd"/>
      </g>
      <g id="Сгруппировать_172" data-name="Сгруппировать 172">
        <path id="Контур_66" data-name="Контур 66" d="M5334.551,65.607c-1.628-6.739-1.483-4.253-1.1-12.064a4.244,4.244,0,0,0-2.736-3.987c-.945,1.484-1.8,3.842-4.191,4.213-.92,5.188-1.067,4.721.883,9.64l.077.265-.2-.176c-3.668-2.645-4.983-3.572-7.041-8.272-1.465-3.346.379-6.546,3.8-7.59.1-.183.253-.445.47-.818,6-10.353,20.374,2.255,14.208,10.711C5334.7,63.037,5336.742,59.645,5334.551,65.607Z" fill="#fde67d" fill-rule="evenodd"/>
      </g>
      <g id="Сгруппировать_173" data-name="Сгруппировать 173">
        <path id="Контур_67" data-name="Контур 67" d="M5340.341,73.808c1.556-1.285,8.843.849,10.736,3.705,3.408,5.137.077,10.524-6.03,8.775-6.021,5.26-11.558-2.7-8.634-5.677.789-.8,1.172-.448,2.5-2.625a4.892,4.892,0,0,0,.816-2,8.27,8.27,0,0,1,1.368,4.951c1.342-1.305,2.025-1.8,3.309-1.611-1.065-2.207-2.558-5.44-4.062-5.515Zm.736,7.695c-.03.605-.1,1.21-.185,1.808.608-1.017.243-1.256,1.064-1.51A1.2,1.2,0,0,0,5341.077,81.5Z" fill="#fde67d" fill-rule="evenodd"/>
      </g>
      <path id="Контур_68" data-name="Контур 68" d="M5354.926,75.944l-.1-.468-.6.046-.118.169.292,3.732c.885,1.514-.842,9.67-1.986,11.136-.9,1.148-9.045,6.308-10.043,6.1l-.621-.241.654.552,3.012-1.3c.751-1,3.57-1.81,4.672-2.6a5.629,5.629,0,0,1,1.364-1.192C5356.146,88.731,5354.367,76.955,5354.926,75.944Z" fill="#210f00"/>
      <path id="Контур_69" data-name="Контур 69" d="M5324.79,71.544c-.083.924-.04.479-.409.689,0-.206-.492-.378.409-.689Zm.238.562c.484-.729,0-.7.828-.256-.611.531-.242.371-.828.256Zm.038-2.048c-.018.154.091.033-.114.441a6.557,6.557,0,0,1-.441.676c-.346-.749-.284-.826.555-1.117Zm12.235,8.636-.718.126c.712-.856.541-.657,1.573-.952l-.855.826Zm-11.346-6.364,1.359-1.429c-.11.979-.5,1.166-1.359,1.429Zm-.3-1.9-.045.244c-.325.361-.061.106-.367.273.109-.65-.2-.148.412-.517Zm4.825,2.064,1.832.4c.564.69.694.819.559,1.672-1.282-.264-2.852-.427-2.391-2.07Zm-9.25-7.564-.048.8c0,.04.014.106.02.143l.153.4c-1.142-.251-1.008-1.1-.125-1.343Zm.559,1.844c2.338.534,5.267-.977,8.186,2.7,1,1.258.539,1,.362,2.493l1.4.429a9.759,9.759,0,0,0-.268-1.839,13.9,13.9,0,0,0-1.1-1.777,10.381,10.381,0,0,0-3.75-3.155c-4.534,1.758-1.8-.841-4.824,1.15Zm-.779-2.3c.023-.861.751-.9,1.5-.844l-1.5.844Zm13.791,9.371c.921-2.165,1.153-2.176,2.91-3.558a13.961,13.961,0,0,1-2.91,3.558Zm-3.529-7.668c1.366.259,1.551-.181,2.481,1.417a1.583,1.583,0,0,1-.622,2.472c-.48-.615-.1-.5-.825-2.022-.322-.681-.8-1.3-1.034-1.867Zm.617-.218a2.37,2.37,0,0,0-.453-.717c-.487-.437-.355-.2-.582-.208.391.762.2.52,1.035.925Zm6.353,8.41-1.54-.045a21.074,21.074,0,0,1,5.795-3.807c-1.554,1.433-2.806,2.078-4.255,3.852Zm-10.122-11.131c.657,1.094.976.1.951,1.8-1.3-.858-2.107-1.044-1.074-2.524l.848-.041-.725.769Zm4.515.684c.415.408.711.5.526,1.175-.252.914-.521.694-1.136.323.415-.684.822-.641.61-1.5Zm-2.056-.024-.241.706c-.357-.831-.63-1.176-.256-1.844-.143-.6-.287-.076.222-.791.341.27.989.828.807,1.381-.369,1.124-.116.321-.532.548Zm-2.787-1.657-.367.4c-1.512,2.467,2.966,2.009,3.524,5.867-.766-.631-1.832-2.478-3.018-3.017-1.062-.483-1.008.175-2.295-1.031a1.938,1.938,0,0,1,.97-3.532l.7-.3a4.237,4.237,0,0,1,2.37.315c-.679,1.05-.751,1.065-1.881,1.3Zm3.294,0c.288-.774.229-.153-.16-.761l.16.761Zm2.666-.389-.829.887-.927-.276c.009.085-.7.25.444.559a1.131,1.131,0,0,0,1.312-1.17Zm-1.1-.006c.123.024.234-.031.215-.007s.091-.071.1-.089.04-.118.047-.139,0-.118.01-.176l-.37.411Zm.467-5.041c-.181-.148-.558-.424-.722-.573l-.541-.745c2.254-.451,3.37,2.048,1.21,2.146l.053-.828Zm10.8-.691c-.641-.979.381-2.38.121-3.627a121.321,121.321,0,0,0-6.3,11.326c-.731,1.769-1.271,3.459-2.087,5.262-1.019,2.252-1.379,1.853-1.628,4.083l-.363,1.247c.706-.238,2.386-3.623,3.026-4.512,1.085-1.506,2.432-3.248,3.575-4.739,4.423-5.771.839-2.608,3.214-6.731.747-1.295.173-1.417.444-2.309Zm-7.1,14.3c3.734-2.784,6.8-7.958,12.3-9.589,1.383-.41,3.094-.546,4.346-1.473-2.65.162-1.864-.616-4.651.861-.729.387-1.541.657-2.226,1.05-3.566,2.047-7.791,5.714-9.767,9.151Zm-3.394-6.388-.1,7.93,11.9-22.5.966.456c-.132-2.817-5.629-11.705-7.92-13.536-2.323-1.858-5.65-1.3-8.28-.905-3.969.594-4.923.4-5.5,4.184l.33-.465,5.882,3.717-.268.4-4.78-3.144,3.829,4.656-5.681-4.8-.254-.231-.6.21-8.3.538c-6.169,7.765-1.431,18.9,5.532,24.768l-.181-.13,1.99-2.458.422-.026,1.606,1.873c-.4.618-.14.61-.716.263.377-.68.54-.762-.278-1.248-.394.783-.276.479.22.877l-.193.207a2.75,2.75,0,0,0-1.673.981c.663-.05.173.168.958-.237.375-.193.036-.054.481-.316.05-.03.125-.019.2-.1s.144-.068.234-.085l-1.111,1.233c1.161-.5.831-1.031,1.8-1.067l2.143.32c-1.749-2.1-3.265-3.142.561-5.016l3.034.153.639-.276.111-.4c.434.074.551-.315.869-.706a2.21,2.21,0,0,0,1.187-1.926c-.611-.547-.484-.784-1.363-.839-.345,1.018-.047.553.578,1.317l-.4.255a2,2,0,0,1-1.041-1.641c-.687.264-.879.345-.862.978l-.131.444.958.278c.557.547.142,0,.15.5l-.375.183a1.585,1.585,0,0,0-.587-.078l-.812-.853-.15-.455.331-.825,1.156-1,2.849-.854.3.112.809.445.751.732a2.977,2.977,0,0,0,.147.855c.312.823-.122.4.535.539l.97-4.654.563,6.448.49,0-1.681,3.136-.437-1.376c-.332.3.036.309.04.313-.054-1.384-1.645-.323-.852-2.127l.976.042.024.354.467.006.429-.155-.377-.608-.426-.169c-1.352-.3-1.641-.055-2.705.873-1.2.777-.78.638-1.542,1.4l-.19.162c-.234.308-.114.239-.126.337,1-.045-.009.218,1.022-.454.643-.419.316-.284.9-.4,1.1.481,1.127.591,1.4,1.624l-.971,1.264c-1.711-.032-1.113.132-2.228-1.083.213.806.342.585.1,1.369,1.062.153,1.122-.261,2.24.418Zm22.427-11.948,2.813-.784c-2,3.6-1.281,8.1-6.355,7.636-3.207-.294-6.571,2.632-9.279,4.074l-.2-.233,8.949-6.432-11.035,8.107.278.352,4.488-6.44.013.026c-.346.353-.154.332-.576.078l-1.834,2.06-.263-.173,1.263-2.192c.02-.386.047-.682.07-1.117l.235-.327-.505-.6.2-.189c.178-3.677,1.563-6.126,5.5-7.029,2.812-.645,2.74,1.14,4.592,1.284a26.778,26.778,0,0,1,4.529.616l-2.893,1.284Zm.026-3.156-.757.614,4.6.924c-2.692,2.252-1.631,6.31-3.866,8.03-2.695,2.075-4.889,1.979-7.55,3.068-3.51,1.437-12.4,9.753-12.914,12.83l8.57-4.81c4.442-1.153,12.452-2.5,15.658-5.448a52.085,52.085,0,0,0,6.936-7.145c3.219-4.146-.437-5.552-2.092-7.333l.929-2.055-1.8,1.094-.07-.863-6.932.687c-.23-.252-.369,0-.067-.317l-.64-.486c-.321.529-.068.646-.065.681.03.305.135-.02.059.529Zm.006-1.21-2.1,1.84-.044-.77-7.1.169.018.68c-2.961-5.175,14.324-10.117,17.306-7.8l.6,4.091-8.684,1.788ZM5353.8,42.54l-8.357,4.147.927.311-10-11.943c-1.108.117-4.686-.122-7.26.148-5.123.537-3.753,1.654-5.121,4.278l-9.558.506-.271.093-2.429,6.323c.229.616.253,7.759,1.461,11,1.86,4.99,6.2,6.6,8.192,9.662-3.877,1.086-4.659,3.511-6.283,6.634-.379.729-2.8,7.388-3.311,8.762l1.315.385a4.652,4.652,0,0,1,3.4-.227c-.157-.513.773.016-.517-.6l1.121-.229c-.048-.374.152-.042-.283-.375l-1.888-.044-.129-.19,4.541-3.548-5.927,4.333-.375-.443c-.381-.574,3.857-11.4,5.609-12.786,3.033-2.4,11.043-1.982,11.472,2.09l-5.678-1.278-.572.43.864,2.943-1.118.514,4.112-1.059-.241.028.6-2.067.749-.11.4,2.034.338.711-.163.637.945.114.206.707,10.079.815-.283.4-7.781,4.029c-.575,1.069-.261,1.159-1.6.809l-.269.194.85.434,5.6-2.246.129-.171c.892-.646.191-.266.944-.2-.23-.738,1.417-1.291,2.189-1.633.461-.01-.1-.466.739.1,1.1.744.371.318.474.775l3.89,3.053-6.648-6.549-.26.255c1.816-2.133,7.043-6.643,9.959-4.719,1.079-.054,3.274,1.347,3.926,2.315s.753,2.458,1.591,3.6l.118-.169-5.636-7.2-.717.611c8.149-2.551,6.648-.342,14.007-6.5,11.447-9.576,4.353-11.16,2.8-13.14l1.813-2.093-2.734.92-2.488-1.05c3.742-1.59,13.129,1.4,13.789,3.472l.35.334a38.185,38.185,0,0,0-3.958,3.868l4.329,2.574.381-.424,1.018,3.966c-3.083,4.037-5.521,8.686-10.541,10.684-2.13.848-10.036,4.69-11.806,3.929l.1.468,16.622-6.189a4.5,4.5,0,0,1,.913-1.724c3.06-2.949,6.889-7.566,3.794-11.406l-4.293-1.86c1.053-1.814,6.959-4.517,1.205-6.187-.588-.171-8.139-2.758-8.181-2.782-1.48-2.234.933-5.434-3.759-5.193C5358.506,40.743,5356.4,42.119,5353.8,42.54Z" fill="#210f00" fill-rule="evenodd"/>
      <path id="Контур_70" data-name="Контур 70" d="M5338.91,95.926c.694.21,1.419.5,2.377.723l-.295-.718c-3.341-.433-1.983-1.71-3.84-3.2-.632-.592-.539-.5-1.318-.58-1.255.038-.351-.092-.767.212,1.125.462,1.307-.257,2.121,1C5337.536,93.9,5338.512,95.311,5338.91,95.926Z" fill="#210f00" fill-rule="evenodd"/>
      <path id="Контур_71" data-name="Контур 71" d="M5332.82,59.4l.4.125a8.041,8.041,0,0,1-.334.911c1.1.481,1.127.591,1.4,1.624a2.367,2.367,0,0,0,.464,1.575l.928-1.388-.437-1.376c-.332.3.036.309.04.313-.054-1.384-1.645-.323-.852-2.127l.976.042.117-.572C5334.173,58.233,5333.884,58.475,5332.82,59.4Z" fill="#b5b3b4" fill-rule="evenodd"/>
      <path id="Контур_72" data-name="Контур 72" d="M5346.3,78.833c.742.409.5.205,1.038.795.686.75.1.7.722.489.917-.311-.02-.4-.741-1.591l1.416,1.065c.175-.694-1.124-1.326-1.929-1.718-.666-.323-1.65-.927-2.388-.776.513.681,1.359.6,2.374,1.59a14.548,14.548,0,0,0-3.482-1.235c.109.215-.061.095.382.371a5.331,5.331,0,0,1,1.773,1.21c.773.9.484,1.305,1.537,2.179Z" fill="#706e6f" fill-rule="evenodd"/>
      <path id="Контур_73" data-name="Контур 73" d="M5335.834,92.148c.779.082.686-.012,1.318.58-.051-.229-.048-.188-.1-.39-.006-.026-.059-.086-.035-.148a17.289,17.289,0,0,1,2.865-4.052c1.157-1.15,1.784-2.424,2.609-3.256l-.284-.171c-.82.715-1.492,2.508-2.774,3.172l1.076-2.332c-1,.461-1.289,2.517-2.123,3.442a7.144,7.144,0,0,0-1.485,1.725C5335.8,92.733,5336.329,91.436,5335.834,92.148Z" fill="#777475" fill-rule="evenodd"/>
      <path id="Контур_74" data-name="Контур 74" d="M5344.957,58.467c.422.254.23.275.576-.078l-.013-.026c.9-.213,1.86-1.311,2.653-1.75l5.534-3.757c-.832-.081-1.013.172-2,.837l-5.458,3.635,2.507-2.693C5347.625,55.031,5345.827,57.4,5344.957,58.467Z" fill="#454344" fill-rule="evenodd"/>
      <path id="Контур_75" data-name="Контур 75" d="M5345.759,76.1c.2-.074.032-.289.766.01-.155.055,0,.068-.419.08-.584.016.625.2-.347-.09Zm.766.01c1.251,1.19,1.183.577,2.867.934a3.465,3.465,0,0,0-1.341-.515c-1.073-.328-.854-.8-1.526-.419Zm.84-.308-1.87-.053c.066.332-.654.024.264.351-.811.244-.4-.153-1.252.37.055.087-.554.218.579.367a3.729,3.729,0,0,1,2.966.952l-.1-.366,1.093.141c1.533.331,1.136.778,2.09.808C5350.611,77.039,5348.723,76.263,5347.365,75.8Z" fill="#444342" fill-rule="evenodd"/>
      <path id="Контур_76" data-name="Контур 76" d="M5343.025,81.315c-.532.937-.369,2.179-.817,3.4l.284.171a1.869,1.869,0,0,1,.231-.066.439.439,0,0,0,.178-.1c.058-.06.091-.082.072-.143l.573-1.193c-.038.95-.31.925.155,1.842.561-1.066,1.05-3.318.146-3.93l-.356.471Z" fill="#969496" fill-rule="evenodd"/>
      <path id="Контур_77" data-name="Контур 77" d="M5337.3,78.694l-.129.171a1.121,1.121,0,0,1,.524,1.143,4.8,4.8,0,0,1-.3,1.454c-.954,2.618-1.918,2.693-1.409,3.327l1.317-1.981a5.884,5.884,0,0,1-.411.744c-.461.932-.312.3-.2.884a6.85,6.85,0,0,0,1.481-3.1,9.776,9.776,0,0,0,.289-1.449c.118-.99.08-.875-.213-1.392C5337.492,78.428,5338.193,78.048,5337.3,78.694Z" fill="#757274" fill-rule="evenodd"/>
      <path id="Контур_78" data-name="Контур 78" d="M5347.1,63.422a1.106,1.106,0,0,0-.473.159c-.058.031-.231.156-.29.2l-4.354,3.9a59.043,59.043,0,0,0-5.16,4.775C5338.007,72.03,5347.054,63.481,5347.1,63.422Z" fill="#5d5b5c" fill-rule="evenodd"/>
      <path id="Контур_79" data-name="Контур 79" d="M5344.126,55.928l-.2.189.505.6c.4-.814.83-1.763,1.726-1.938a3.384,3.384,0,0,1-1.961,2.265c-.023.435-.05.731-.07,1.117a24.961,24.961,0,0,1,3.052-3.557,5.862,5.862,0,0,1,3.054-1.978c-1.286-.455-2.976,1.386-3.7,2.334.115-.96.224-.209-.191-1.009C5343.887,55.412,5345.211,55.351,5344.126,55.928Z" fill="#5c595a" fill-rule="evenodd"/>
      <path id="Контур_80" data-name="Контур 80" d="M5341.553,78.424l-.738-.418.832-.267c-.1-.457.623-.031-.474-.775-.834-.566-.278-.11-.739-.1l.9.512-1.031.554.458.294c1.677,1.561.518,5.24.4,6.285a5.6,5.6,0,0,0,1.02-3.876C5341.85,77.9,5341.888,79.636,5341.553,78.424Z" fill="#525050" fill-rule="evenodd"/>
      <path id="Контур_81" data-name="Контур 81" d="M5319.356,77.627c1.077-.279,3.6-2.256,5.879-2.661,1.01-.179.162-.326,1.954-.465-.887-.373-.329.062-.284-.646a30.18,30.18,0,0,0-3.8,1.249A20.444,20.444,0,0,0,5319.356,77.627Z" fill="#434243" fill-rule="evenodd"/>
      <path id="Контур_82" data-name="Контур 82" d="M5322.537,74.588c-.207.011-.119-.247-.546-.015l1.64-1.143c-1.286.224-6.457,3.73-6.633,4.916.875-.349,1.706-1.491,2.591-2.075S5321.812,75.135,5322.537,74.588Z" fill="#595455" fill-rule="evenodd"/>
      <path id="Контур_83" data-name="Контур 83" d="M5345.523,66.552c-1.41.307-3.076,2.157-4.237,3.08a37.818,37.818,0,0,0-4.209,3.358A70.623,70.623,0,0,0,5345.523,66.552Z" fill="#555353" fill-rule="evenodd"/>
      <path id="Контур_84" data-name="Контур 84" d="M5330.993,80.483c1.343.35,1.029.26,1.6-.809a2.329,2.329,0,0,0-1.6.809Zm-14.482,2.135,1.3.148.093-.278.769.206c.969.59.6.529.941,1.432l.229-.225,0-.5c1.271.447.789.367,1.923-.065l1.106.169,1.069.014.065.151c.764.381,1.193.75,1.892.427,2.6-.451,2.88-.755,4.929-2.432l.754-.558-.85-.434-.51.421-.8.557-1.1.3-.866.535-.479.131-1.261.027c-1.118-.183-.179-.116-.711.083l-1.013.187-.748-.316-1.4-.265-.481.01c-.6-.248-.912-.49-1.438-.307l-.848-.028-.884-.234c-.747-.342-.587-.411-1.355-.367.435.333.235,0,.283.375l-1.121.229c1.291.621.36.092.517.6Zm5.248.288.414.164c-.254.059-.22.147-.414.27a12.437,12.437,0,0,1-2.366-.68l.5-.238,1.135.535Z" fill="#210f00" fill-rule="evenodd"/>
      <path id="Контур_85" data-name="Контур 85" d="M5329.431,73.6l-1.211.016c-.515-.192.036-.293-.709-.138-.82.172-.154.013-.606.373-.045.708-.6.273.284.646.384.4.251.472.432-.03l1.109-.091,1.852.045-.206-.707Z" fill="#aaaaab" fill-rule="evenodd"/>
      <path id="Контур_86" data-name="Контур 86" d="M5362.021,56.887c.734-.408.937-.959,1.853-1.4a9.454,9.454,0,0,0,2.187-1.116c-.981-.108-2.817.888-3.771,1.482C5361.277,56.488,5361.459,56.342,5362.021,56.887Z" fill="#0e0e0d" fill-rule="evenodd"/>
      <path id="Контур_87" data-name="Контур 87" d="M5358.157,60.645c.835.179,2.818-.644,3.019-1.258-.523-.626-.733-.109-1.619.221C5358.751,59.91,5358.234,59.678,5358.157,60.645Z" fill="#141313" fill-rule="evenodd"/>
      <path id="Контур_88" data-name="Контур 88" d="M5329.406,57.295l.327-.515.5,1.237c.557.547.142,0,.15.5.433.676.446.73.059,1.339.434.074.551-.315.869-.706l-.593-.941.591-.252a2,2,0,0,1-1.041-1.641C5329.581,56.581,5329.389,56.662,5329.406,57.295Z" fill="#a09fa1" fill-rule="evenodd"/>
      <path id="Контур_89" data-name="Контур 89" d="M5332.795,54.641l.3.112-.052-1.512c-.37-2.191-.054-1.5-.636-1.647l-.462.937C5332.965,53.834,5331.817,53.454,5332.795,54.641Z" fill="#a4a3a4" fill-rule="evenodd"/>
      <path id="Контур_90" data-name="Контур 90" d="M5333.906,55.2l.751.732-.213-1.254a38.072,38.072,0,0,0-1.114-4.507c.025.922.411.828.132,1.6a4.755,4.755,0,0,0-.219,1.489c.7-.665-.589-.185.485-.6C5333.883,54.513,5334.22,54.5,5333.906,55.2Z" fill="#8b8a8c" fill-rule="evenodd"/>
      <path id="Контур_91" data-name="Контур 91" d="M5348.221,63.91c1.264.135,1.085-.245,2.07-.917.748-.511,1.27-.551,1.93-1.259-.8-.2-1.1.338-1.882.786C5349.223,63.16,5349.183,62.816,5348.221,63.91Z" fill="#090408" fill-rule="evenodd"/>
      <path id="Контур_92" data-name="Контур 92" d="M5336.179,51.162l.3-.583a2.63,2.63,0,0,0-.126-2.053c-.024,0-.4.025-.412.025l-.429-.05C5335.885,49.789,5335.354,49.7,5336.179,51.162Z" fill="#969697" fill-rule="evenodd"/>
      <path id="Контур_93" data-name="Контур 93" d="M5334.753,63.638a9.056,9.056,0,0,1-.112,2.2,4.623,4.623,0,0,0,1.04-3.591Z" fill="#686668" fill-rule="evenodd"/>
      <path id="Контур_94" data-name="Контур 94" d="M5334.988,89.824a23.46,23.46,0,0,0,.37-2.6,5.243,5.243,0,0,1,.561-1.468c.421-.711.922-.79.264-.968C5335.212,86.166,5334.284,88.319,5334.988,89.824Z" fill="#6c686a" fill-rule="evenodd"/>
      <path id="Контур_95" data-name="Контур 95" d="M5322.956,40l.13,2.459.445-.305.516,1.163c.092-1.469-1.006-1.858-.234-3.3l-.254-.231Z" fill="#5d5b5c" fill-rule="evenodd"/>
      <path id="Контур_96" data-name="Контур 96" d="M5340.064,84.619a14.273,14.273,0,0,0,1.131-2.476,4.828,4.828,0,0,0-.3-2.621,18.936,18.936,0,0,0-.114,2.5C5340.686,82.883,5340.034,83.865,5340.064,84.619Z" fill="#5a595a" fill-rule="evenodd"/>
      <path id="Контур_97" data-name="Контур 97" d="M5360.163,52.4c1.16-.3,2.318-2.288,3.157-3.257-1.076.185-.451-.028-1.586,1.414C5361.088,51.373,5360.705,51.4,5360.163,52.4Z" fill="#2d2c2c" fill-rule="evenodd"/>
      <path id="Контур_98" data-name="Контур 98" d="M5348.052,77.789l.378.86c.8-.394.076-.638.211-.958l1.328,1.269.25-.5-1.175-.9-1.093-.141Z" fill="#939092" fill-rule="evenodd"/>
      <path id="Контур_99" data-name="Контур 99" d="M5333.34,90.1c.057,1.086.862,1.232,1.456,2.012l.271.25c.416-.3-.488-.174.767-.212-1.1-.808-.4-.685-.871-1.623l-.017,1.276Z" fill="#585556" fill-rule="evenodd"/>
      <path id="Контур_100" data-name="Контур 100" d="M5330.086,62.765l.172-.279c.05.233.006.5.04.686.152.856-.032.113.285.731.416-.227.163.576.532-.548.182-.553-.466-1.111-.807-1.381C5329.8,62.689,5329.943,62.165,5330.086,62.765Z" fill="#a4a4a4" fill-rule="evenodd"/>
      <path id="Контур_101" data-name="Контур 101" d="M5347.642,51.414c-.969.035-2.231.854-1.987,1.987Z" fill="#0e0b0c" fill-rule="evenodd"/>
      <path id="Контур_102" data-name="Контур 102" d="M5323.312,64.832l-.251-.164a2.75,2.75,0,0,0-1.673.981c.663-.05.173.168.958-.237.375-.193.036-.054.481-.316.05-.03.125-.019.2-.1s.144-.068.234-.085l-1.111,1.233c1.161-.5.831-1.031,1.8-1.067.7-.577.183-.166.074-.508C5323.628,65.187,5323.888,65.179,5323.312,64.832Z" fill="#9c9b9d" fill-rule="evenodd"/>
      <path id="Контур_103" data-name="Контур 103" d="M5331.09,62.244c.213.806.342.585.1,1.369,1.062.153,1.122-.261,2.24.418l-.113-.7C5331.607,63.295,5332.205,63.459,5331.09,62.244Z" fill="#b5b3b4" fill-rule="evenodd"/>
      <path id="Контур_104" data-name="Контур 104" d="M5354.305,60.96c.7.063.162.331,1.075-.236a1.72,1.72,0,0,0,.824-.914C5355.078,59.775,5354.876,60.11,5354.305,60.96Z" fill="#0b0908" fill-rule="evenodd"/>
      <path id="Контур_105" data-name="Контур 105" d="M5327.461,52.386c-.356,1.132-.049.475.261,1.712l1.084.091C5328.324,53.579,5327.969,53.055,5327.461,52.386Z" fill="#a09fa1" fill-rule="evenodd"/>
      <path id="Контур_106" data-name="Контур 106" d="M5332.639,63.927c.212.857-.2.814-.61,1.5.615.371.884.591,1.136-.323C5333.35,64.431,5333.054,64.335,5332.639,63.927Z" fill="#b5b3b4" fill-rule="evenodd"/>
      <path id="Контур_107" data-name="Контур 107" d="M5324.648,40.822c.125.833,1.415,2.437,2.244,2.477Z" fill="#605c5d" fill-rule="evenodd"/>
      <path id="Контур_108" data-name="Контур 108" d="M5332.624,86.867c.238-.815.681-2.278.269-3.049A6.514,6.514,0,0,0,5332.624,86.867Z" fill="#555353" fill-rule="evenodd"/>
      <path id="Контур_109" data-name="Контур 109" d="M5344.59,82.3c-.273.648-.613,2.017-.224,2.608A3.962,3.962,0,0,0,5344.59,82.3Z" fill="#343334" fill-rule="evenodd"/>
      <path id="Контур_110" data-name="Контур 110" d="M5322.827,46.515a12.944,12.944,0,0,0,.179-1.9l.1-1.587c.025-.065-.044-.093-.068-.139A6.924,6.924,0,0,0,5322.827,46.515Z" fill="#464646" fill-rule="evenodd"/>
      <path id="Контур_111" data-name="Контур 111" d="M5325.987,58.182a3.231,3.231,0,0,0-.726-3Z" fill="#9a989a" fill-rule="evenodd"/>
      <path id="Контур_112" data-name="Контур 112" d="M5332.927,62.742l-.927-.276c.009.085-.7.25.444.559a1.131,1.131,0,0,0,1.312-1.17Z" fill="#b7b6b9" fill-rule="evenodd"/>
      <path id="Контур_113" data-name="Контур 113" d="M5340.386,80.247a1.432,1.432,0,0,0-.83-1.953Z" fill="#605c5d" fill-rule="evenodd"/>
      <path id="Контур_114" data-name="Контур 114" d="M5328.79,56.49l1.156-1-.888-.5c.124,1.265.331.338-.041,1.1l-.512-.16c.01-.035-.08-.014-.17.018Z" fill="#a4a3a4" fill-rule="evenodd"/>
      <path id="Контур_115" data-name="Контур 115" d="M5323.554,74.241a7.407,7.407,0,0,0,2.792-.68A5.246,5.246,0,0,0,5323.554,74.241Z" fill="#4d4d4d" fill-rule="evenodd"/>
      <path id="Контур_116" data-name="Контур 116" d="M5348.173,56.613l-.9,1.154c.644-.239.488-.211,1.09-.826.569.374-.071-.042.447.527l.02-.915Z" fill="#5c595a" fill-rule="evenodd"/>
      <path id="Контур_117" data-name="Контур 117" d="M5339.608,83.59c.382-.2.39-.346.55-.79a1.582,1.582,0,0,0,.075-1.49Z" fill="#646163" fill-rule="evenodd"/>
      <path id="Контур_118" data-name="Контур 118" d="M5329.421,58.623a3.354,3.354,0,0,0,.275,1.116c.248.764.231.289,0,.8l.639-.276c-.289-.35-.329-.286-.447-.75-.208-.814-.308-.116.124-.807A1.585,1.585,0,0,0,5329.421,58.623Z" fill="#a4a3a4" fill-rule="evenodd"/>
      <path id="Контур_119" data-name="Контур 119" d="M5341.553,78.424l1.121,1.2c-.056-.828-.495-1.1-1.152-1.721Z" fill="#5a595a" fill-rule="evenodd"/>
      <path id="Контур_120" data-name="Контур 120" d="M5328.609,57.77l-.15-.455c-.459-.092-.23-.079-.651-.841l.692,2.769C5328.516,58.316,5328.337,58.5,5328.609,57.77Z" fill="#a4a4a4" fill-rule="evenodd"/>
      <path id="Контур_121" data-name="Контур 121" d="M5355.884,48.927l.713-.407c-.23-.252-.369,0-.067-.317l-.64-.486c-.321.529-.068.646-.065.681C5355.855,48.7,5355.96,48.378,5355.884,48.927Z" fill="#454344" fill-rule="evenodd"/>
      <path id="Контур_122" data-name="Контур 122" d="M5353.707,52.856a5.107,5.107,0,0,0,2.151-.773A3.186,3.186,0,0,0,5353.707,52.856Z" fill="#363535" fill-rule="evenodd"/>
      <path id="Контур_123" data-name="Контур 123" d="M5326.61,60.93l.819,1.713.367-.4c-.616.012-.348.149-.588-.6-.308-.965-.292-.392.1-1.018Z" fill="#a09fa1" fill-rule="evenodd"/>
      <path id="Контур_124" data-name="Контур 124" d="M5326,76.119a7.352,7.352,0,0,0,2.638-.486A5.549,5.549,0,0,0,5326,76.119Z" fill="#4d4d4d" fill-rule="evenodd"/>
      <path id="Контур_125" data-name="Контур 125" d="M5337.3,78.694l.855-.826c-1.032.3-.861.1-1.573.952Z" fill="#b5b3b4" fill-rule="evenodd"/>
      <path id="Контур_126" data-name="Контур 126" d="M5335.042,45.383c.295,1-.085,1.515.525,2.5A4.709,4.709,0,0,0,5335.042,45.383Z" fill="#969697" fill-rule="evenodd"/>
      <path id="Контур_127" data-name="Контур 127" d="M5336.179,51.162a1.5,1.5,0,0,0,.13,1.508l.168-2.091Z" fill="#494848" fill-rule="evenodd"/>
      <path id="Контур_128" data-name="Контур 128" d="M5329.235,76.625c.417.033.032.093.5,0l1.661-.536A3.58,3.58,0,0,0,5329.235,76.625Z" fill="#494849" fill-rule="evenodd"/>
      <path id="Контур_129" data-name="Контур 129" d="M5328.4,51.515a2.257,2.257,0,0,0-.6-2.075Z" fill="#939092" fill-rule="evenodd"/>
      <path id="Контур_130" data-name="Контур 130" d="M5348.406,62.658a3.761,3.761,0,0,0,1.734-.815A3.1,3.1,0,0,0,5348.406,62.658Z" fill="#454344" fill-rule="evenodd"/>
      <path id="Контур_131" data-name="Контур 131" d="M5324.128,43.31c.066.923.214.833.537,1.638C5324.847,44.367,5324.514,43.857,5324.128,43.31Z" fill="#555353" fill-rule="evenodd"/>
      <path id="Контур_132" data-name="Контур 132" d="M5326.024,77.94l2.159-.966A3.753,3.753,0,0,0,5326.024,77.94Z" fill="#494848" fill-rule="evenodd"/>
      <path id="Контур_133" data-name="Контур 133" d="M5345.523,66.552,5347.7,65.3A4.395,4.395,0,0,0,5345.523,66.552Z" fill="#494849" fill-rule="evenodd"/>
      <path id="Контур_134" data-name="Контур 134" d="M5347.1,63.422a2.005,2.005,0,0,0,1.307-.764A1.826,1.826,0,0,0,5347.1,63.422Z" fill="#504e4e" fill-rule="evenodd"/>
      <path id="Контур_135" data-name="Контур 135" d="M5330.421,75.521c.675.088.711.278,1.175-.155C5330.711,75.1,5331.059,75.205,5330.421,75.521Z" fill="#6c686a" fill-rule="evenodd"/>
      <path id="Контур_136" data-name="Контур 136" d="M5348.882,64.758a4.594,4.594,0,0,0,2.175-1.211Z" fill="#494849" fill-rule="evenodd"/>
      <path id="Контур_137" data-name="Контур 137" d="M5322.529,76.817c.434.059.015.032.5.011.621-.026-.016-.114.553-.021.924-.555.288-.1.178-.407Z" fill="#4c4c4b" fill-rule="evenodd"/>
      <path id="Контур_138" data-name="Контур 138" d="M5333.119,56.808c.316-.152.316.506.314-.388,0-.627-.041-.15-.358-.562Z" fill="#605c5d" fill-rule="evenodd"/>
      <path id="Контур_139" data-name="Контур 139" d="M5329.594,72.967a2.443,2.443,0,0,0-1.936.317Z" fill="#4c4c4b" fill-rule="evenodd"/>
      <path id="Контур_140" data-name="Контур 140" d="M5343.025,81.315a1.932,1.932,0,0,0-.351-1.69Z" fill="#4c4c4b" fill-rule="evenodd"/>
      <path id="Контур_141" data-name="Контур 141" d="M5322.964,48.208a1.875,1.875,0,0,0-.137-1.693Z" fill="#464646" fill-rule="evenodd"/>
      <path id="Контур_142" data-name="Контур 142" d="M5339.158,80.04c.215-.807.311-.745-.19-1.4Z" fill="#585556" fill-rule="evenodd"/>
      <path id="Контур_143" data-name="Контур 143" d="M5333.34,90.1c.029-.578-.026-.535-.339-1.119C5332.982,89.643,5332.894,89.5,5333.34,90.1Z" fill="#4d4d4d" fill-rule="evenodd"/>
      <path id="Контур_144" data-name="Контур 144" d="M5329.052,75.643a2,2,0,0,0,1.347-.2A1.851,1.851,0,0,0,5329.052,75.643Z" fill="#494849" fill-rule="evenodd"/>
      <path id="Контур_145" data-name="Контур 145" d="M5351.789,56.344l1.3-.277C5352.365,55.863,5352.392,55.926,5351.789,56.344Z" fill="#555353" fill-rule="evenodd"/>
      <path id="Контур_146" data-name="Контур 146" d="M5351.057,63.547l1.107-.377C5351.38,63.052,5351.6,63.021,5351.057,63.547Z" fill="#4d4d4d" fill-rule="evenodd"/>
      <path id="Контур_147" data-name="Контур 147" d="M5333.575,75.564l1.251.006C5333.8,75.228,5334.333,75.216,5333.575,75.564Z" fill="#5c595a" fill-rule="evenodd"/>
      <path id="Контур_148" data-name="Контур 148" d="M5335.9,59.462l.429-.155-.377-.608Z" fill="#5d5b5c" fill-rule="evenodd"/>
      <path id="Контур_149" data-name="Контур 149" d="M5332.6,87.623c-.064.66.023.7.343,1.3Z" fill="#494848" fill-rule="evenodd"/>
      <path id="Контур_150" data-name="Контур 150" d="M5344.241,80.158c-.019-.764.22-.234-.46-.886Z" fill="#454344" fill-rule="evenodd"/>
      <path id="Контур_151" data-name="Контур 151" d="M5344.59,82.3c.183-.648.213-.551-.077-1.058Z" fill="#282829" fill-rule="evenodd"/>
      <path id="Контур_152" data-name="Контур 152" d="M5325.247,70.951c.306-.167.042.088.367-.273l.045-.244C5325.049,70.8,5325.356,70.3,5325.247,70.951Z" fill="#bcbdbd" fill-rule="evenodd"/>
      <path id="Контур_153" data-name="Контур 153" d="M5322.537,74.588l1.017-.347C5322.972,74.2,5323.058,74.173,5322.537,74.588Z" fill="#444342" fill-rule="evenodd"/>
      <path id="Контур_154" data-name="Контур 154" d="M5344.513,81.244l-.189-1.013C5344.24,80.909,5344.138,80.683,5344.513,81.244Z" fill="#494849" fill-rule="evenodd"/>
      <path id="Контур_155" data-name="Контур 155" d="M5328.183,76.974l1.052-.349C5328.643,76.612,5328.718,76.605,5328.183,76.974Z" fill="#464646" fill-rule="evenodd"/>
      <path id="Контур_156" data-name="Контур 156" d="M5332.6,87.623c.266-.724.11.222.1-.33,0-.36-.031-.287-.08-.426-.236.6-.112-.3-.1.313A.774.774,0,0,0,5332.6,87.623Z" fill="#444342" fill-rule="evenodd"/>
      <path id="Контур_157" data-name="Контур 157" d="M5345.537,80.792c.03.589-.31.181.364.708Z" fill="#4f4d4d" fill-rule="evenodd"/>
      <path id="Контур_158" data-name="Контур 158" d="M5334.963,90.525a.783.783,0,0,0,.1-.444c0-.023-.053-.076-.027-.131s-.032-.083-.045-.126c-.281.653-.115-.355-.106.291C5334.886,90.481,5334.907,90.372,5334.963,90.525Z" fill="#464646" fill-rule="evenodd"/>
      <path id="Контур_159" data-name="Контур 159" d="M5332.652,61.849c.123.024.234-.031.215-.007s.091-.071.1-.089.04-.118.047-.139,0-.118.01-.176Z" fill="#a4a3a4" fill-rule="evenodd"/>
      <path id="Контур_160" data-name="Контур 160" d="M5327.621,74.471a4.758,4.758,0,0,1,1.109-.091Z" fill="#3d3c3c" fill-rule="evenodd"/>
      <path id="Контур_161" data-name="Контур 161" d="M5343.847,81.294" fill="#494848" fill-rule="evenodd"/>
      <path id="Контур_162" data-name="Контур 162" d="M5329.256,72.256l-.974.011Z" fill="#494849" fill-rule="evenodd"/>
      <path id="Контур_163" data-name="Контур 163" d="M5328.22,73.62l1.211-.016Z" fill="#464646" fill-rule="evenodd"/>
      <path id="Контур_164" data-name="Контур 164" d="M5328.73,74.38l1.852.045Z" fill="#4c4c4b" fill-rule="evenodd"/>
      <path id="Контур_165" data-name="Контур 165" d="M5340.386,80.247l-.123.88Z" fill="#444342" fill-rule="evenodd"/>
      <path id="Контур_166" data-name="Контур 166" d="M5347.7,65.3l1.186-.541Z" fill="#464646" fill-rule="evenodd"/>
    </g>
    <g id="Сгруппировать_175" data-name="Сгруппировать 175">
      <path id="Контур_167" data-name="Контур 167" d="M5499.4,81.138a1.294,1.294,0,0,0-.816.774,34.224,34.224,0,0,1-4.149,6.439c-.368.434-1.352,1.526-2.015,1.526a.294.294,0,0,1-.135-.024c-.078-.056-.092-.331-.092-.411a11.718,11.718,0,0,1,.327-2.4,10.182,10.182,0,0,1,.653-1.848c.4-.915.871-1.812,1.353-2.691.471-.854.962-1.712,1.5-2.529a8.029,8.029,0,0,1,1.054-1.353l1.418-1.339-1.945.46a3.288,3.288,0,0,1-1.041-.057,8.026,8.026,0,0,0-1.168-.156,2.925,2.925,0,0,0-2.119.825,12.269,12.269,0,0,0-1.758,2.605c-1.049,1.888-4.934,8.775-7.687,8.775a.678.678,0,0,1-.349-.08c-.36-.218-.4-.966-.4-1.315,0-1.55,1.132-3.555,1.953-4.848l.006-.009a25.447,25.447,0,0,1,3.417-4.533c1.131-1.165,3.294-3.176,5.113-3.176a1.841,1.841,0,0,1,1.969,1.4l.1.315.345.05a1.284,1.284,0,0,0,1.485-.717,1.425,1.425,0,0,0-.417-1.581l-.009-.009-.01-.009a6.267,6.267,0,0,0-4.455-1.728,8.4,8.4,0,0,0-2.016.263,12.065,12.065,0,0,0-6.429,3.761,18.256,18.256,0,0,0-4.051,6.759c-.726,1.262-3.235,5.506-4.954,5.506-.7,0-.8-.473-.8-1.051a7.093,7.093,0,0,1,.492-2.194c.284-.8.633-1.587.988-2.357.518-1.125,1.074-2.236,1.642-3.339,1.663-3.23,3.445-6.417,5.251-9.577,1.34-2.346,2.7-4.705,4.152-6.993.424-.669.858-1.341,1.324-1.984a5.981,5.981,0,0,1,.764-.924l1.26-1.086-1.7.178a5.278,5.278,0,0,1-1.184-.071,8.924,8.924,0,0,0-1.073-.129h-.73a2.98,2.98,0,0,0-1.621.563,5.785,5.785,0,0,0-1.621,2.31c-1.756,3.8-3.724,7.518-5.774,11.18a7.842,7.842,0,0,0-3.069-.717,9.235,9.235,0,0,0-2.744.369,11.084,11.084,0,0,0-5.417,3.412,20.1,20.1,0,0,0-3.394,5.178l-.036.081c-.757,1.4-1.558,2.8-2.45,4.126a14.614,14.614,0,0,1-1.943,2.431,2.832,2.832,0,0,1-1.7.791c-.715,0-1.06-.2-1.06-.9a7.086,7.086,0,0,1,.835-2.881l0-.007L5458.647,77a1.95,1.95,0,0,0,.315-1.758c-.32-.644-1.252-.72-1.909-.72l-3.96.068.651.821a2.22,2.22,0,0,1,.514.964,2.031,2.031,0,0,1-.072.61l-2.462,5.925c-.562,1.044-1.151,2.081-1.788,3.086a21.7,21.7,0,0,1-1.552,2.19c-.375.456-1.37,1.592-2.061,1.592a.454.454,0,0,1-.251-.057c-.178-.128-.178-.582-.169-.763a8.577,8.577,0,0,1,.53-2.232c.264-.711.569-1.42.893-2.119.306-.661.625-1.322.975-1.963l.938-1.723c.391-.72.764-1.45,1.128-2.182a5.429,5.429,0,0,0,.678-2.118,2.051,2.051,0,0,0-.2-1.078l-.184-.261-.332.03c-1.435.133-2.905.244-4.347.244-.419,0-.839,0-1.261-.007a5.008,5.008,0,0,0,2-3.7,3.6,3.6,0,0,0-.185-1.2l0-.011a2.325,2.325,0,0,0-2.19-1.726c-1.225,0-1.807.922-2,1.957a45.259,45.259,0,0,1-2.937,9.344q-.248.578-.512,1.147a.936.936,0,0,0-.21.29c-.193.409-.4.816-.6,1.222-.249.509-.506,1.027-.791,1.52q-.486.84-.978,1.678-.212.329-.431.652a16.147,16.147,0,0,1-1.732,1.936l-.008.008-.008.008a3.148,3.148,0,0,1-2.241,1.153,2.187,2.187,0,0,1-1.734-.629,17.968,17.968,0,0,0,4.171-5.676,10.757,10.757,0,0,0,1.191-4.637c0-2.788-1.09-5.052-4.358-5.052a9.243,9.243,0,0,0-5.762,2.546,17.1,17.1,0,0,0-4.541,6.04c-.04.08-.083.17-.125.263a46.154,46.154,0,0,1-3.31,5.277c-.712.96-1.834,2.163-3.192,2.163a1.222,1.222,0,0,1-1.178-.635,3.388,3.388,0,0,1-.454-1.719,7.576,7.576,0,0,1,.269-1.986c.2-.734.433-1.459.691-2.176.11-.307.221-.614.328-.922.035-.1.073-.209.107-.315a45.706,45.706,0,0,0,10.693-14.832,11.152,11.152,0,0,0,1.3-4.449,4.747,4.747,0,0,0-.06-.824l0-.019,0-.018c-.27-1.051-.887-2.025-2.154-2.025a5.692,5.692,0,0,0-3.894,1.936,14.488,14.488,0,0,0-1.636,2.1c-.6-.082-1.2-.2-1.795-.327a49.141,49.141,0,0,1-8.167-2.705,2.479,2.479,0,0,1,1.323-.443,1.638,1.638,0,0,1,.465.075,1.545,1.545,0,0,0,.781.456l.019,0,.02,0c.709.083,1.041-.442.988-1.047-.064-1.332-1.305-1.721-2.533-1.721a5.035,5.035,0,0,0-3.422,1.527,53.992,53.992,0,0,0-13.725-5.543,24.8,24.8,0,0,0-6.243-.856,16.23,16.23,0,0,0-10.787,3.726c-2.625,2.207-4.457,4.957-4.457,8.364a6.284,6.284,0,0,0,3.606,5.865,7.654,7.654,0,0,0,3.876,1.106,12.213,12.213,0,0,0,3.72-.569,7.748,7.748,0,0,0,5.455-5.1,2.4,2.4,0,0,0,.184-.855c0-.783-.679-1.039-1.346-.641a1.664,1.664,0,0,0-.753,1.526c0,.494-1.1,1.384-1.462,1.66a9.729,9.729,0,0,1-3.842,1.718,5.6,5.6,0,0,1-1.226.133,7.713,7.713,0,0,1-3.571-1.009,2.559,2.559,0,0,1-1.239-2.4c0-2.762,1.772-4.972,3.918-6.686a16.134,16.134,0,0,1,10.373-3.321c5.154,0,11.381,2.427,16.066,4.58-.344.439-.666.914-.965,1.355-.735,1.086-1.432,2.2-2.116,3.317a62.913,62.913,0,0,0-3.959,7.465,43.041,43.041,0,0,0-5.2-.394,9.868,9.868,0,0,0-4.4,1.093,7.608,7.608,0,0,0-3.476,3.643,1.059,1.059,0,0,0,.19,1.3.886.886,0,0,0,.433.227,1.243,1.243,0,0,0,1.145-.537l.014-.017.014-.018c1.533-2.114,5.107-2.43,7.565-2.43l2.486.037a40.8,40.8,0,0,1-9.432,12.985,20.989,20.989,0,0,1-6.5,4.028,19.558,19.558,0,0,1-7.032,1.34,19.341,19.341,0,0,1-6.625-1.1c-3.841-1.394-7.024-3.675-8.536-7.376a8.976,8.976,0,0,1-.745-3.355,13.38,13.38,0,0,1,.25-2.751l0-.013a8.242,8.242,0,0,1,3.787-5.372c.443-.3.892-.6,1.323-.915a2.011,2.011,0,0,0,.672-.656.547.547,0,0,0-.012-.437c-.282-.6-1.256-.26-1.733-.127a9.085,9.085,0,0,0-3.051,1.858,7.877,7.877,0,0,0-2.478,3.531l0,.01a18.712,18.712,0,0,0-.908,5.512c0,5.153,2.367,9.083,6.98,11.812a21.486,21.486,0,0,0,11.078,2.738,25.392,25.392,0,0,0,11.778-2.722,19.406,19.406,0,0,0,4.443-3.059,32.015,32.015,0,0,0,3.443-3.58,31.694,31.694,0,0,0,3.288-5.2,71.239,71.239,0,0,0,3.1-6.944,34.925,34.925,0,0,0,3.641.149c1.147,0,2.3-.015,3.443-.069.826-.038,1.667-.093,2.486-.207.76-.107,2.436-.349,2.388-1.355V75.5l0-.02c-.114-.861-1.454-.812-2.116-.779-1.331.066-2.676.073-4.008.073a41.276,41.276,0,0,1-4.792-.3c.031-.076.062-.151.094-.226q.387-.927.785-1.851a56,56,0,0,1,2.949-5.988,22.6,22.6,0,0,1,2.459-3.547l1.069.505q1.377.651,2.784,1.241c1.2.5,2.457.917,3.7,1.3.843.259,1.709.508,2.578.705-.44.764-.854,1.545-1.253,2.327-.663,1.3-1.29,2.615-1.9,3.938a66.578,66.578,0,0,0-3.437,8.976l0,.012c-.043.162-.1.33-.156.489-.125.385-.254.769-.382,1.153a14.411,14.411,0,0,0-.675,3.161v.021c-.028.516-.052,1.037-.052,1.553a6.381,6.381,0,0,0,.195,1.469,3.149,3.149,0,0,0,1.265,1.723,4.714,4.714,0,0,0,2.845.778,7.444,7.444,0,0,0,3.733-1.163,7.177,7.177,0,0,0,1.555-1.3c.411-.442.821-.888,1.212-1.345.021-.024.042-.048.062-.073.31,2.177,1.517,3.786,4.273,3.786a8.194,8.194,0,0,0,4.366-1.512,5.079,5.079,0,0,0,3.4,1.119,5.614,5.614,0,0,0,2.734-.813,6.105,6.105,0,0,0,1.129-.85l.013-.01c.123-.113.241-.229.36-.346.239-.236.474-.478.7-.729a11.686,11.686,0,0,0,.929-1.237l.026-.039c.242-.343.479-.7.708-1.068l.051-.08c.1-.159.2-.321.292-.485a49.949,49.949,0,0,0,3.375-7.085l.485-1.222c1.023.045,3.233.232,3.233,1.087a1.342,1.342,0,0,1-.117.519,7.413,7.413,0,0,1-.413.746c-.329.561-.669,1.116-1.01,1.67a25.422,25.422,0,0,0-1.94,3.668,7.309,7.309,0,0,0-.635,2.55,4.828,4.828,0,0,0,.183,1.49,3.439,3.439,0,0,0,3.341,2.676c1.731,0,3.195-1.27,4.231-2.454.252-.276.5-.558.748-.847a4.4,4.4,0,0,0,.875,1.953,3.823,3.823,0,0,0,3.184,1.3c1.789,0,3.344-1.294,4.454-2.492a12.408,12.408,0,0,0,.955-1.182,3.728,3.728,0,0,0,2.913,3.46,5.386,5.386,0,0,0,1.315.165,3.917,3.917,0,0,0,1.413-.277c1.535-.462,3.047-2.13,4.2-3.7a4.581,4.581,0,0,0,.927,2.608,3.169,3.169,0,0,0,2.7,1.414c2.264,0,4.111-1.676,5.457-3.406a4.038,4.038,0,0,0,1.715,2.911,3.087,3.087,0,0,0,1.84.594c2.282,0,4.524-2.314,6.134-4.423-.014.185-.022.369-.022.552a4.156,4.156,0,0,0,.548,2.238l.009.014a3.409,3.409,0,0,0,2.916,1.619c1.638,0,3.11-1.372,4.085-2.477a24.123,24.123,0,0,0,2.161-2.924c.842-1.31,1.606-2.672,2.325-4.045l.007-.012.006-.014a1.972,1.972,0,0,0,.2-.8A.8.8,0,0,0,5499.4,81.138Zm-24.828-5.212c-1.157,2.028-2.341,4.046-3.584,6.027-.936,1.492-1.914,2.991-2.983,4.4-.707.936-2.531,3.225-3.923,3.225a.575.575,0,0,1-.571-.35,2.5,2.5,0,0,1-.281-1.192,9.438,9.438,0,0,1,1.445-4.132,22.56,22.56,0,0,1,5.649-6.637c.677-.534,2.121-1.6,3.056-1.6A2.485,2.485,0,0,1,5474.576,75.926Zm-48.082,10.859v.024a4.393,4.393,0,0,0,.66,2.3,3.978,3.978,0,0,1-2.188.914,1.291,1.291,0,0,1-.756-.2,1.946,1.946,0,0,1-.512-1.542,13.906,13.906,0,0,1,1.769-5.581,16.3,16.3,0,0,1,3.324-4.673,5.325,5.325,0,0,1,2.947-1.623,1.387,1.387,0,0,1,.811.212,2.1,2.1,0,0,1,.561,1.675,10.3,10.3,0,0,1-1.246,4.692c-.361.7-.745,1.439-1.162,2.146a2.864,2.864,0,0,0-.305-.358,2.092,2.092,0,0,0-1.524-.607C5427.206,84.169,5426.564,85.361,5426.494,86.785ZM5421.02,67.04a6.39,6.39,0,0,0,1.749-.412q-.132.308-.269.612a45.652,45.652,0,0,1-3.786,6.543,44.894,44.894,0,0,1-3.059,4.085c.892-2.009,1.84-4,2.807-5.971C5419.263,70.265,5420.1,68.618,5421.02,67.04Z" fill="#45291e" stroke="#fff" stroke-linecap="round" stroke-linejoin="round" stroke-width="5.231"/>
      <path id="Контур_168" data-name="Контур 168" d="M5458.2,73.554a3.079,3.079,0,0,0,1.976-.716,2.889,2.889,0,0,0,1.072-1.735,2.068,2.068,0,0,0-.521-1.863,2.429,2.429,0,0,0-1.85-.77,3.086,3.086,0,0,0-1.976.717,2.876,2.876,0,0,0-1.07,1.734l0,.015,0,.015a2.244,2.244,0,0,0,.543,1.824A2.344,2.344,0,0,0,5458.2,73.554Z" fill="#45291e" stroke="#fff" stroke-linecap="round" stroke-linejoin="round" stroke-width="5.231"/>
    </g>
    <g id="Сгруппировать_176" data-name="Сгруппировать 176">
      <path id="Контур_169" data-name="Контур 169" d="M5499.4,81.138a1.294,1.294,0,0,0-.816.774,34.224,34.224,0,0,1-4.149,6.439c-.368.434-1.352,1.526-2.015,1.526a.294.294,0,0,1-.135-.024c-.078-.056-.092-.331-.092-.411a11.718,11.718,0,0,1,.327-2.4,10.182,10.182,0,0,1,.653-1.848c.4-.915.871-1.812,1.353-2.691.471-.854.962-1.712,1.5-2.529a8.029,8.029,0,0,1,1.054-1.353l1.418-1.339-1.945.46a3.288,3.288,0,0,1-1.041-.057,8.026,8.026,0,0,0-1.168-.156,2.925,2.925,0,0,0-2.119.825,12.269,12.269,0,0,0-1.758,2.605c-1.049,1.888-4.934,8.775-7.687,8.775a.678.678,0,0,1-.349-.08c-.36-.218-.4-.966-.4-1.315,0-1.55,1.132-3.555,1.953-4.848l.006-.009a25.447,25.447,0,0,1,3.417-4.533c1.131-1.165,3.294-3.176,5.113-3.176a1.841,1.841,0,0,1,1.969,1.4l.1.315.345.05a1.284,1.284,0,0,0,1.485-.717,1.425,1.425,0,0,0-.417-1.581l-.009-.009-.01-.009a6.267,6.267,0,0,0-4.455-1.728,8.4,8.4,0,0,0-2.016.263,12.065,12.065,0,0,0-6.429,3.761,18.256,18.256,0,0,0-4.051,6.759c-.726,1.262-3.235,5.506-4.954,5.506-.7,0-.8-.473-.8-1.051a7.093,7.093,0,0,1,.492-2.194c.284-.8.633-1.587.988-2.357.518-1.125,1.074-2.236,1.642-3.339,1.663-3.23,3.445-6.417,5.251-9.577,1.34-2.346,2.7-4.705,4.152-6.993.424-.669.858-1.341,1.324-1.984a5.981,5.981,0,0,1,.764-.924l1.26-1.086-1.7.178a5.278,5.278,0,0,1-1.184-.071,8.924,8.924,0,0,0-1.073-.129h-.73a2.98,2.98,0,0,0-1.621.563,5.785,5.785,0,0,0-1.621,2.31c-1.756,3.8-3.724,7.518-5.774,11.18a7.842,7.842,0,0,0-3.069-.717,9.235,9.235,0,0,0-2.744.369,11.084,11.084,0,0,0-5.417,3.412,20.1,20.1,0,0,0-3.394,5.178l-.036.081c-.757,1.4-1.558,2.8-2.45,4.126a14.614,14.614,0,0,1-1.943,2.431,2.832,2.832,0,0,1-1.7.791c-.715,0-1.06-.2-1.06-.9a7.086,7.086,0,0,1,.835-2.881l0-.007L5458.647,77a1.95,1.95,0,0,0,.315-1.758c-.32-.644-1.252-.72-1.909-.72l-3.96.068.651.821a2.22,2.22,0,0,1,.514.964,2.031,2.031,0,0,1-.072.61l-2.462,5.925c-.562,1.044-1.151,2.081-1.788,3.086a21.7,21.7,0,0,1-1.552,2.19c-.375.456-1.37,1.592-2.061,1.592a.454.454,0,0,1-.251-.057c-.178-.128-.178-.582-.169-.763a8.577,8.577,0,0,1,.53-2.232c.264-.711.569-1.42.893-2.119.306-.661.625-1.322.975-1.963l.938-1.723c.391-.72.764-1.45,1.128-2.182a5.429,5.429,0,0,0,.678-2.118,2.051,2.051,0,0,0-.2-1.078l-.184-.261-.332.03c-1.435.133-2.905.244-4.347.244-.419,0-.839,0-1.261-.007a5.008,5.008,0,0,0,2-3.7,3.6,3.6,0,0,0-.185-1.2l0-.011a2.325,2.325,0,0,0-2.19-1.726c-1.225,0-1.807.922-2,1.957a45.259,45.259,0,0,1-2.937,9.344q-.248.578-.512,1.147a.936.936,0,0,0-.21.29c-.193.409-.4.816-.6,1.222-.249.509-.506,1.027-.791,1.52q-.486.84-.978,1.678-.212.329-.431.652a16.147,16.147,0,0,1-1.732,1.936l-.008.008-.008.008a3.148,3.148,0,0,1-2.241,1.153,2.187,2.187,0,0,1-1.734-.629,17.968,17.968,0,0,0,4.171-5.676,10.757,10.757,0,0,0,1.191-4.637c0-2.788-1.09-5.052-4.358-5.052a9.243,9.243,0,0,0-5.762,2.546,17.1,17.1,0,0,0-4.541,6.04c-.04.08-.083.17-.125.263a46.154,46.154,0,0,1-3.31,5.277c-.712.96-1.834,2.163-3.192,2.163a1.222,1.222,0,0,1-1.178-.635,3.388,3.388,0,0,1-.454-1.719,7.576,7.576,0,0,1,.269-1.986c.2-.734.433-1.459.691-2.176.11-.307.221-.614.328-.922.035-.1.073-.209.107-.315a45.706,45.706,0,0,0,10.693-14.832,11.152,11.152,0,0,0,1.3-4.449,4.747,4.747,0,0,0-.06-.824l0-.019,0-.018c-.27-1.051-.887-2.025-2.154-2.025a5.692,5.692,0,0,0-3.894,1.936,14.488,14.488,0,0,0-1.636,2.1c-.6-.082-1.2-.2-1.795-.327a49.141,49.141,0,0,1-8.167-2.705,2.479,2.479,0,0,1,1.323-.443,1.638,1.638,0,0,1,.465.075,1.545,1.545,0,0,0,.781.456l.019,0,.02,0c.709.083,1.041-.442.988-1.047-.064-1.332-1.305-1.721-2.533-1.721a5.035,5.035,0,0,0-3.422,1.527,53.992,53.992,0,0,0-13.725-5.543,24.8,24.8,0,0,0-6.243-.856,16.23,16.23,0,0,0-10.787,3.726c-2.625,2.207-4.457,4.957-4.457,8.364a6.284,6.284,0,0,0,3.606,5.865,7.654,7.654,0,0,0,3.876,1.106,12.213,12.213,0,0,0,3.72-.569,7.748,7.748,0,0,0,5.455-5.1,2.4,2.4,0,0,0,.184-.855c0-.783-.679-1.039-1.346-.641a1.664,1.664,0,0,0-.753,1.526c0,.494-1.1,1.384-1.462,1.66a9.729,9.729,0,0,1-3.842,1.718,5.6,5.6,0,0,1-1.226.133,7.713,7.713,0,0,1-3.571-1.009,2.559,2.559,0,0,1-1.239-2.4c0-2.762,1.772-4.972,3.918-6.686a16.134,16.134,0,0,1,10.373-3.321c5.154,0,11.381,2.427,16.066,4.58-.344.439-.666.914-.965,1.355-.735,1.086-1.432,2.2-2.116,3.317a62.913,62.913,0,0,0-3.959,7.465,43.041,43.041,0,0,0-5.2-.394,9.868,9.868,0,0,0-4.4,1.093,7.608,7.608,0,0,0-3.476,3.643,1.059,1.059,0,0,0,.19,1.3.886.886,0,0,0,.433.227,1.243,1.243,0,0,0,1.145-.537l.014-.017.014-.018c1.533-2.114,5.107-2.43,7.565-2.43l2.486.037a40.8,40.8,0,0,1-9.432,12.985,20.989,20.989,0,0,1-6.5,4.028,19.558,19.558,0,0,1-7.032,1.34,19.341,19.341,0,0,1-6.625-1.1c-3.841-1.394-7.024-3.675-8.536-7.376a8.976,8.976,0,0,1-.745-3.355,13.38,13.38,0,0,1,.25-2.751l0-.013a8.242,8.242,0,0,1,3.787-5.372c.443-.3.892-.6,1.323-.915a2.011,2.011,0,0,0,.672-.656.547.547,0,0,0-.012-.437c-.282-.6-1.256-.26-1.733-.127a9.085,9.085,0,0,0-3.051,1.858,7.877,7.877,0,0,0-2.478,3.531l0,.01a18.712,18.712,0,0,0-.908,5.512c0,5.153,2.367,9.083,6.98,11.812a21.486,21.486,0,0,0,11.078,2.738,25.392,25.392,0,0,0,11.778-2.722,19.406,19.406,0,0,0,4.443-3.059,32.015,32.015,0,0,0,3.443-3.58,31.694,31.694,0,0,0,3.288-5.2,71.239,71.239,0,0,0,3.1-6.944,34.925,34.925,0,0,0,3.641.149c1.147,0,2.3-.015,3.443-.069.826-.038,1.667-.093,2.486-.207.76-.107,2.436-.349,2.388-1.355V75.5l0-.02c-.114-.861-1.454-.812-2.116-.779-1.331.066-2.676.073-4.008.073a41.276,41.276,0,0,1-4.792-.3c.031-.076.062-.151.094-.226q.387-.927.785-1.851a56,56,0,0,1,2.949-5.988,22.6,22.6,0,0,1,2.459-3.547l1.069.505q1.377.651,2.784,1.241c1.2.5,2.457.917,3.7,1.3.843.259,1.709.508,2.578.705-.44.764-.854,1.545-1.253,2.327-.663,1.3-1.29,2.615-1.9,3.938a66.578,66.578,0,0,0-3.437,8.976l0,.012c-.043.162-.1.33-.156.489-.125.385-.254.769-.382,1.153a14.411,14.411,0,0,0-.675,3.161v.021c-.028.516-.052,1.037-.052,1.553a6.381,6.381,0,0,0,.195,1.469,3.149,3.149,0,0,0,1.265,1.723,4.714,4.714,0,0,0,2.845.778,7.444,7.444,0,0,0,3.733-1.163,7.177,7.177,0,0,0,1.555-1.3c.411-.442.821-.888,1.212-1.345.021-.024.042-.048.062-.073.31,2.177,1.517,3.786,4.273,3.786a8.194,8.194,0,0,0,4.366-1.512,5.079,5.079,0,0,0,3.4,1.119,5.614,5.614,0,0,0,2.734-.813,6.105,6.105,0,0,0,1.129-.85l.013-.01c.123-.113.241-.229.36-.346.239-.236.474-.478.7-.729a11.686,11.686,0,0,0,.929-1.237l.026-.039c.242-.343.479-.7.708-1.068l.051-.08c.1-.159.2-.321.292-.485a49.949,49.949,0,0,0,3.375-7.085l.485-1.222c1.023.045,3.233.232,3.233,1.087a1.342,1.342,0,0,1-.117.519,7.413,7.413,0,0,1-.413.746c-.329.561-.669,1.116-1.01,1.67a25.422,25.422,0,0,0-1.94,3.668,7.309,7.309,0,0,0-.635,2.55,4.828,4.828,0,0,0,.183,1.49,3.439,3.439,0,0,0,3.341,2.676c1.731,0,3.195-1.27,4.231-2.454.252-.276.5-.558.748-.847a4.4,4.4,0,0,0,.875,1.953,3.823,3.823,0,0,0,3.184,1.3c1.789,0,3.344-1.294,4.454-2.492a12.408,12.408,0,0,0,.955-1.182,3.728,3.728,0,0,0,2.913,3.46,5.386,5.386,0,0,0,1.315.165,3.917,3.917,0,0,0,1.413-.277c1.535-.462,3.047-2.13,4.2-3.7a4.581,4.581,0,0,0,.927,2.608,3.169,3.169,0,0,0,2.7,1.414c2.264,0,4.111-1.676,5.457-3.406a4.038,4.038,0,0,0,1.715,2.911,3.087,3.087,0,0,0,1.84.594c2.282,0,4.524-2.314,6.134-4.423-.014.185-.022.369-.022.552a4.156,4.156,0,0,0,.548,2.238l.009.014a3.409,3.409,0,0,0,2.916,1.619c1.638,0,3.11-1.372,4.085-2.477a24.123,24.123,0,0,0,2.161-2.924c.842-1.31,1.606-2.672,2.325-4.045l.007-.012.006-.014a1.972,1.972,0,0,0,.2-.8A.8.8,0,0,0,5499.4,81.138Zm-24.828-5.212c-1.157,2.028-2.341,4.046-3.584,6.027-.936,1.492-1.914,2.991-2.983,4.4-.707.936-2.531,3.225-3.923,3.225a.575.575,0,0,1-.571-.35,2.5,2.5,0,0,1-.281-1.192,9.438,9.438,0,0,1,1.445-4.132,22.56,22.56,0,0,1,5.649-6.637c.677-.534,2.121-1.6,3.056-1.6A2.485,2.485,0,0,1,5474.576,75.926Zm-48.082,10.859v.024a4.393,4.393,0,0,0,.66,2.3,3.978,3.978,0,0,1-2.188.914,1.291,1.291,0,0,1-.756-.2,1.946,1.946,0,0,1-.512-1.542,13.906,13.906,0,0,1,1.769-5.581,16.3,16.3,0,0,1,3.324-4.673,5.325,5.325,0,0,1,2.947-1.623,1.387,1.387,0,0,1,.811.212,2.1,2.1,0,0,1,.561,1.675,10.3,10.3,0,0,1-1.246,4.692c-.361.7-.745,1.439-1.162,2.146a2.864,2.864,0,0,0-.305-.358,2.092,2.092,0,0,0-1.524-.607C5427.206,84.169,5426.564,85.361,5426.494,86.785ZM5421.02,67.04a6.39,6.39,0,0,0,1.749-.412q-.132.308-.269.612a45.652,45.652,0,0,1-3.786,6.543,44.894,44.894,0,0,1-3.059,4.085c.892-2.009,1.84-4,2.807-5.971C5419.263,70.265,5420.1,68.618,5421.02,67.04Z" fill="#45291e"/>
      <path id="Контур_170" data-name="Контур 170" d="M5458.2,73.554a3.079,3.079,0,0,0,1.976-.716,2.889,2.889,0,0,0,1.072-1.735,2.068,2.068,0,0,0-.521-1.863,2.429,2.429,0,0,0-1.85-.77,3.086,3.086,0,0,0-1.976.717,2.876,2.876,0,0,0-1.07,1.734l0,.015,0,.015a2.244,2.244,0,0,0,.543,1.824A2.344,2.344,0,0,0,5458.2,73.554Z" fill="#45291e"/>
    </g>
  </g>
</svg>
