<svg xmlns="http://www.w3.org/2000/svg" width="19.325" height="27.704" viewBox="0 0 19.325 27.704">
  <g id="Сгруппировать_63" data-name="Сгруппировать 63" transform="translate(-5644.927 -56.471)">
    <path id="Контур_18" data-name="Контур 18" d="M5655.4,56.471c.475.088.959.143,1.423.27a9.423,9.423,0,0,1,7.224,7.555,9.236,9.236,0,0,1-1.208,6.825q-3.724,6.264-7.468,12.518a.84.84,0,0,1-1.567,0c-2.534-4.25-5.12-8.469-7.588-12.757a9.629,9.629,0,0,1,6.475-14.228c.359-.074.724-.12,1.087-.179Zm-.8,25.252,1.961-3.287q2.432-4.078,4.866-8.158a7.8,7.8,0,0,0,.985-5.839,8,8,0,0,0-15.823,1.543,8.108,8.108,0,0,0,1.177,4.313q3.339,5.583,6.666,11.172C5654.471,81.542,5654.521,81.612,5654.594,81.723Z" fill="#839f60"/>
    <path id="Контур_19" data-name="Контур 19" d="M5649.818,66.043a4.766,4.766,0,1,1,4.773,4.766A4.752,4.752,0,0,1,5649.818,66.043Zm1.636.011a3.131,3.131,0,1,0,3.119-3.142A3.158,3.158,0,0,0,5651.454,66.054Z" fill="#839f60"/>
  </g>
</svg>
