<svg xmlns="http://www.w3.org/2000/svg" width="62.27" height="89.268" viewBox="0 0 62.27 89.268">
  <g id="Сгруппировать_377" data-name="Сгруппировать 377" transform="translate(-5955.501 -5186.292)">
    <path id="Контур_225" data-name="Контур 225" d="M6017.1,5211.507c-2.739-12.825-10.67-20.878-23.276-24.345-1.5-.411-3.055-.586-4.585-.87h-5.228c-1.168.19-2.344.339-3.5.576a31.026,31.026,0,0,0-20.863,45.846c7.952,13.816,16.284,27.413,24.449,41.107,1.379,2.313,3.672,2.321,5.051.012q12.037-20.164,24.061-40.337A29.742,29.742,0,0,0,6017.1,5211.507Zm-30.46,20.986a15.357,15.357,0,1,1,15.333-15.316A15.324,15.324,0,0,1,5986.643,5232.493Z" fill="#fff"/>
    <g id="Сгруппировать_376" data-name="Сгруппировать 376">
      <path id="Контур_226" data-name="Контур 226" d="M5989.242,5186.292c1.53.285,3.09.459,4.585.871,12.606,3.466,20.537,11.52,23.276,24.343a29.743,29.743,0,0,1-3.892,21.99q-12,20.186-24.061,40.337c-1.379,2.309-3.672,2.3-5.051-.013-8.165-13.693-16.5-27.29-24.449-41.106a31.025,31.025,0,0,1,20.863-45.846c1.158-.237,2.333-.386,3.5-.576Zm-2.59,81.368c2.163-3.624,4.241-7.108,6.319-10.591q7.841-13.143,15.677-26.287a25.127,25.127,0,0,0,3.174-18.816,25.782,25.782,0,0,0-50.985,4.972,26.123,26.123,0,0,0,3.794,13.9q10.759,17.988,21.479,36C5986.253,5267.075,5986.417,5267.3,5986.652,5267.66Z" fill="#839f60"/>
      <path id="Контур_227" data-name="Контур 227" d="M5971.261,5217.134a15.357,15.357,0,1,1,15.382,15.359A15.311,15.311,0,0,1,5971.261,5217.134Zm5.271.036a10.089,10.089,0,1,0,10.052-10.124A10.177,10.177,0,0,0,5976.532,5217.17Z" fill="#839f60"/>
    </g>
  </g>
</svg>
