<svg xmlns="http://www.w3.org/2000/svg" width="20.743" height="17.922" viewBox="0 0 20.743 17.922">
  <g id="Сгруппировать_74" data-name="Сгруппировать 74" transform="translate(-6277.075 -156.347)">
    <path id="Контур_24" data-name="Контур 24" d="M6297.818,156.982l-3.28,16.541a1.215,1.215,0,0,1-1.721.6l-7.571-5.8-2.753-1.33-4.634-1.56s-.711-.253-.78-.8.8-.849.8-.849l18.422-7.227S6297.818,155.881,6297.818,156.982Z" fill="#839f60"/>
    <path id="Контур_25" data-name="Контур 25" d="M6284.664,173.337s-.221-.021-.5-.892-1.675-5.46-1.675-5.46l11.127-7.066s.642-.39.619,0c0,0,.115.069-.229.39s-8.741,7.868-8.741,7.868" fill="#fff"/>
    <path id="Контур_26" data-name="Контур 26" d="M6288.149,170.541l-2.994,2.73a.527.527,0,0,1-.491.066l.574-5.071" fill="#144246"/>
  </g>
</svg>
