<svg xmlns="http://www.w3.org/2000/svg" width="28.703" height="28.7" viewBox="0 0 28.703 28.7">
  <path id="Контур_17" data-name="Контур 17" d="M6650.351,57.475h-.082a14.369,14.369,0,0,0-14.284,14.336,14.113,14.113,0,0,0,4.17,10.121,14.375,14.375,0,0,0,10.168,4.243h.071a14.35,14.35,0,0,0-.043-28.7ZM6658,81.656a12.45,12.45,0,0,1-7.757,2.628h0a12.31,12.31,0,0,1-7.453-2.551c-.058-.044-.109-.081-.153-.112-.315-.229-.335-.308-.166-.653.024-.048.052-.105.084-.173a8.292,8.292,0,0,1,6.782-5.054,8.425,8.425,0,0,1,8.862,5.211A.521.521,0,0,1,6658,81.656Zm-10.587-9.1a4.086,4.086,0,0,1-1.2-2.93,4.13,4.13,0,0,1,4.113-4.1h.022a4.123,4.123,0,0,1-.006,8.246h-.013A4.092,4.092,0,0,1,6647.414,72.561Zm12.528,7.139-.147.167-.1-.2a10.483,10.483,0,0,0-5.454-5.137l-.215-.093.173-.156a6.023,6.023,0,0,0,2.144-4.974,5.8,5.8,0,0,0-2.005-4.148,6.017,6.017,0,0,0-10.014,4.767,6.194,6.194,0,0,0,2.144,4.353l.177.157-.217.093a10.485,10.485,0,0,0-5.462,5.164l-.1.2-.147-.171a11.366,11.366,0,0,1-1.87-3.072,12.256,12.256,0,0,1-.668-7.566,12.464,12.464,0,0,1,23.621-2.15A12.283,12.283,0,0,1,6659.942,79.7Z" transform="translate(-6635.984 -57.475)" fill="#839f60"/>
</svg>
