<svg xmlns="http://www.w3.org/2000/svg" width="18.311" height="18.31" viewBox="0 0 18.311 18.31">
  <g id="Сгруппировать_75" data-name="Сгруппировать 75" transform="translate(-6238.296 -156.153)">
    <path id="Контур_27" data-name="Контур 27" d="M6247.614,156.153a8.969,8.969,0,0,0-8.993,8.926,8.86,8.86,0,0,0,1.233,4.514l-1.545,4.556a.238.238,0,0,0,.225.314.25.25,0,0,0,.072-.011l4.751-1.51a8.946,8.946,0,1,0,4.257-16.789Z" fill="#839f60"/>
    <path id="Контур_28" data-name="Контур 28" d="M6251.845,166.674c-.036-.017-1.371-.674-1.608-.76a.936.936,0,0,0-.311-.068.527.527,0,0,0-.449.266c-.134.2-.537.67-.662.811-.016.019-.038.041-.052.041s-.218-.085-.281-.112a7.025,7.025,0,0,1-2.668-2.37.148.148,0,0,1-.022-.053.426.426,0,0,1,.078-.093c.073-.072.152-.166.228-.258.036-.044.072-.087.108-.128a1.46,1.46,0,0,0,.216-.344l.03-.06a.62.62,0,0,0-.018-.586c-.031-.063-.6-1.424-.655-1.567-.144-.344-.334-.505-.6-.505l-.1,0a3.208,3.208,0,0,0-1.11.286,2.324,2.324,0,0,0-.862,1.976,4.258,4.258,0,0,0,.924,2.346c.007.009.019.028.038.055a8.7,8.7,0,0,0,3.73,3.238,6.072,6.072,0,0,0,2.253.576h0a3.55,3.55,0,0,0,.366-.022l.066-.006a2.367,2.367,0,0,0,1.651-1.169,1.842,1.842,0,0,0,.1-1.216A.837.837,0,0,0,6251.845,166.674Z" fill="#fff"/>
  </g>
</svg>
