<svg xmlns="http://www.w3.org/2000/svg" width="21.578" height="21.581" viewBox="0 0 21.578 21.581">
  <path id="Контур_230" data-name="Контур 230" d="M6451.82,5738.56a7.873,7.873,0,0,1-1.884-.25,14.6,14.6,0,0,1-4.423-2.01,26.255,26.255,0,0,1-5.7-5.023,20.308,20.308,0,0,1-3.418-5.33,8.432,8.432,0,0,1-.791-4.453,4.264,4.264,0,0,1,1.066-2.428c.249-.27.514-.526.777-.783.155-.15.31-.3.461-.453a2.87,2.87,0,0,1,1.245-.821l.21-.03.728.032a3.021,3.021,0,0,1,1.268.871q.935.942,1.873,1.875l.938.938a2.014,2.014,0,0,1-.007,3.037l-.255.253c-.176.176-.353.352-.527.531a1.146,1.146,0,0,0-.2,1.38,12.1,12.1,0,0,0,5.029,5.029,1.143,1.143,0,0,0,1.394-.209l.844-.842a1.994,1.994,0,0,1,2.89-.006c1.07,1.061,2.139,2.124,3.192,3.2a2.34,2.34,0,0,1,.407.618c.029.057.058.116.089.17l.1.175v.9l-.089.166c-.026.048-.05.1-.073.152a2.122,2.122,0,0,1-.36.589c-.486.53-.992,1.042-1.5,1.545a3.992,3.992,0,0,1-1.816.983A5.6,5.6,0,0,1,6451.82,5738.56Zm-12.33-20.081a1.747,1.747,0,0,0-.514.4c-.16.161-.322.318-.484.475-.245.238-.489.475-.72.725a2.764,2.764,0,0,0-.68,1.6,7.043,7.043,0,0,0,.685,3.684,18.9,18.9,0,0,0,3.174,4.937,24.813,24.813,0,0,0,5.372,4.737,13.155,13.155,0,0,0,3.972,1.815,5.089,5.089,0,0,0,2.6.067,2.532,2.532,0,0,0,1.155-.607c.494-.483.98-.975,1.448-1.485a1.784,1.784,0,0,0,.1-.2l.026-.057v-.147c-.011-.021-.021-.041-.031-.062a1.472,1.472,0,0,0-.142-.246c-1.046-1.069-2.108-2.127-3.174-3.181a.5.5,0,0,0-.781.007l-.85.847a2.644,2.644,0,0,1-3.15.458,13.589,13.589,0,0,1-5.643-5.642,2.639,2.639,0,0,1,.446-3.134c.18-.186.364-.368.548-.55l.25-.249c.336-.336.338-.585.006-.916l-.937-.938q-.94-.937-1.878-1.88a2.146,2.146,0,0,0-.555-.459Z" transform="translate(-6435.552 -5716.979)" fill="#839f60"/>
</svg>
